<?xml version="1.0" encoding="UTF-8"?>
<svg id="Layer_2" data-name="Layer 2" xmlns="http://www.w3.org/2000/svg" viewBox="0 0 107.48 88.27">
  <defs>
    <style>
      .cls-1 {
        fill: #231f20;
      }
    </style>
  </defs>
  <g id="Layer_1-2" data-name="Layer 1">
    <g>
      <path class="cls-1" d="M21.71,84.02l-1.72-2.66c-3.52-7.55-3.56-15.68-.4-23.34,1.89-4.59,6.83-10.84,6.88-15.65,0-.77-.46-1.67-.26-2.44.05-.2.75-.47,1.02-.79,2.84-3.35,3.64-7.12,2.48-11.39l-.32,3.05c-1.01,5.46-4.29,8.95-10.05,8.69-.76-.03-1.55-.5-2.31-.3-.71.18-6.36,3.11-6.91,3.6-.91.8-1.72,3.32-2.22,3.55-1.3.59-4.93.51-6.07-.33-.92-.68-2.16-5.44-1.73-6.5l9.48-13.03c1.05-3.45,4.71-7.03,7.67-9.09.74-.52,1.62-.88,2.37-1.4l-.89-6.5c.3-.34,3.44,1.9,3.87,2.26.96.81,2.41,2.92,3.15,3.35.91.53,2.87.77,4.04,1.21,9.18,3.44,16.18,10.73,19.63,19.88,1.59,4.23,2.01,5.97.11,10.23-3.91,8.78-13.92,11.98-20.31,18.45-3.14,3.18-7.49,10.22-7.49,14.77v4.38Z"/>
      <path class="cls-1" d="M79.47,8.75c.31,8.26-6.36,8.66-12.09,11.29-6.22,2.85-10.02,6.45-9.66,13.84l.5,2.38c-.48-7.02,3.02-11.84,9.17-14.72,3.67-1.72,9.29-2.61,11.7-6.05.55-.78.89-2.37,1.4-2.85.17-.16,3.89-2.14,4.12-2.13.4.02.26.51.25.74-.1,2.51-.77,5.76-2.08,7.93-1.23,2.02-2.61,2.38-4.63,3.37-3.98,1.95-8.12,3.66-12.17,5.46-.06.45.52.21.76.14,5.4-1.54,10.52-4.28,15.99-5.64-.57,2.74-1.19,6.27-3.4,8.23-.69.61-1.58.79-2.41,1.09-3.84,1.36-8.07,2.53-12,3.76-.39.12-.79.19-1.2.18-.04.48.79.22,1.06.18,4.91-.75,9.98-2.47,14.94-3.19-.51,2.8-1.42,5.83-3.99,7.39l-13.77,2.11c-.06.44.57.24.87.25,1.64.07,2.98-.2,4.49-.26,2.95-.13,5.93-.15,8.89-.24-.51,1.76-2.75,5.64-4.64,5.99-1.57.29-5.46.08-7.25.02-1.14-.04-2.39-.48-3.61-.26l10.75,1.75c-.28,1.56-3.43,4.64-4.89,4.74l-8.11-1.74,6.75,2.75c.31.3-3.19,1.73-3.51,1.87-14.2,6-29.54,10.6-34.51,27.26l-.99,3.88c-1.68-5.92-.68-12.29,2.74-17.38,6.76-10.08,21.11-12.8,24.19-25.58,2.04-8.44-3.42-15.28,2.37-23.14,4.46-6.06,12.66-7.72,19.13-10.88,1.64-.8,3.14-1.86,4.83-2.54Z"/>
      <path class="cls-1" d="M107.48,0c-.19,6.82-3.15,10.87-9.08,13.8-4.5,2.22-9.34,3.9-13.92,5.96,1.1-2.29,1.67-4.61,2-7.13.12-.9-.31-2.23.36-2.89L107.48,0Z"/>
      <path class="cls-1" d="M81.98,30.51c.34-.92.9-1.69,1.25-2.62.82-2.14.9-4.42,1.89-6.36l20.86-7.78c-.54,5.89-3.95,10.11-9.37,12.26-4.68,1.86-9.89,2.77-14.63,4.5Z"/>
      <path class="cls-1" d="M102.23,27.51c-1.14,5.03-4.95,9.08-9.95,10.43-4.23,1.14-9,1.17-13.3,2.07-.15-.15,1.67-3.22,1.87-3.76.27-.72.83-3.61,1.13-3.87l20.26-4.87Z"/>
      <path class="cls-1" d="M95.73,41.01c-2.53,5.99-8.62,8.45-14.89,7.76l-6.12-.51c1.86-1.82,2.61-4.36,3.92-6.46l17.09-.79Z"/>
      <path class="cls-1" d="M86.48,51.52c-3.96,5.68-11.33,6.13-17.25,3.37,1.25-.91,2.46-2.08,3.49-3.26.45-.51.71-1.5,1.38-1.63l12.38,1.51Z"/>
      <path class="cls-1" d="M15.46,17c-.5-1.8-1.2-3.59-1-5.5.31-.36,3.46,2.73,3.73,3.16l-2.73,2.34Z"/>
    </g>
  </g>
</svg>
